<svg width="641" height="76" viewBox="0 0 641 76" fill="none" xmlns="http://www.w3.org/2000/svg">
<path d="M8.39646 75.316C7.01779 75.128 5.63913 74.7833 4.26046 74.282C2.88179 73.7807 1.72246 73.06 0.782461 72.12L27.1025 6.13199C28.1051 5.69333 29.2958 5.474 30.6745 5.474C32.2411 5.474 33.4631 5.69333 34.3405 6.13199L60.8485 72.026C60.0338 72.9033 58.9371 73.5927 57.5585 74.094C56.1798 74.658 54.6445 75.0653 52.9525 75.316L45.5265 56.61H15.7285L8.39646 75.316ZM18.9245 48.526H42.3305L30.5805 18.916L18.9245 48.526ZM68.0813 49.372C66.7653 49.0587 65.5433 48.4633 64.4153 47.586C63.2873 46.7087 62.41 45.8627 61.7833 45.048L64.6033 40.348C67.5487 35.5853 70.2433 32.3893 72.6873 30.76C75.1313 29.1307 77.732 28.316 80.4893 28.316C83.3093 28.316 85.6907 29.162 87.6333 30.854C89.576 32.4833 90.9233 34.708 91.6753 37.528C93.43 34.5827 95.686 32.3267 98.4433 30.76C101.201 29.1307 104.271 28.316 107.655 28.316C112.543 28.316 116.303 29.914 118.935 33.11C121.63 36.306 122.977 40.7867 122.977 46.552V57.55C122.977 61.1847 123.447 63.7227 124.387 65.164C125.39 66.5427 126.831 67.232 128.711 67.232C129.589 67.232 130.247 67.608 130.685 68.36C131.187 69.112 131.437 70.1147 131.437 71.368C131.437 72.3707 131.155 73.2793 130.591 74.094C130.09 74.9087 129.244 75.316 128.053 75.316C124.231 75.316 121.003 74.0313 118.371 71.462C115.739 68.83 114.423 64.5373 114.423 58.584V46.552C114.423 39.784 111.76 36.4 106.433 36.4C103.676 36.4 101.232 37.4967 99.1013 39.69C97.0333 41.8833 95.404 44.9227 94.2133 48.808C93.0853 52.6933 92.5213 57.2053 92.5213 62.344V74C91.8947 74.188 91.2053 74.3447 90.4533 74.47C89.7013 74.5953 88.9807 74.658 88.2913 74.658C86.7873 74.658 85.3773 74.4387 84.0613 74V44.014C84.0613 38.938 82.62 36.4 79.7373 36.4C78.9853 36.4 77.9827 36.8387 76.7293 37.716C75.476 38.5307 73.878 40.442 71.9353 43.45L68.0813 49.372ZM128.091 75.316C127.276 75.316 126.618 74.94 126.117 74.188C125.615 73.436 125.365 72.4647 125.365 71.274C125.365 68.5793 126.493 67.232 128.749 67.232C130.754 67.232 132.54 66.2293 134.107 64.224C135.736 62.156 137.146 58.7407 138.337 53.978L141.157 42.98C143.789 33.204 148.802 28.316 156.197 28.316C159.017 28.316 161.398 29.162 163.341 30.854C165.283 32.4833 166.631 34.708 167.383 37.528C169.137 34.5827 171.393 32.3267 174.151 30.76C176.908 29.1307 179.979 28.316 183.363 28.316C188.251 28.316 192.011 29.914 194.643 33.11C197.337 36.306 198.685 40.7867 198.685 46.552V57.55C198.685 61.1847 199.155 63.7227 200.095 65.164C201.097 66.5427 202.539 67.232 204.419 67.232C205.296 67.232 205.954 67.608 206.393 68.36C206.894 69.112 207.145 70.1147 207.145 71.368C207.145 72.3707 206.863 73.2793 206.299 74.094C205.797 74.9087 204.951 75.316 203.761 75.316C199.938 75.316 196.711 74.0313 194.079 71.462C191.447 68.83 190.131 64.5373 190.131 58.584V46.552C190.131 39.784 187.467 36.4 182.141 36.4C179.383 36.4 176.939 37.4967 174.809 39.69C172.741 41.8833 171.111 44.9227 169.921 48.808C168.793 52.6933 168.229 57.2053 168.229 62.344V74C167.602 74.188 166.913 74.3447 166.161 74.47C165.409 74.5953 164.688 74.658 163.999 74.658C162.495 74.658 161.085 74.4387 159.769 74V44.014C159.769 38.938 158.327 36.4 155.445 36.4C154.129 36.4 153.001 36.9953 152.061 38.186C151.121 39.3767 150.306 41.288 149.617 43.92L146.139 57.456C144.509 63.66 142.253 68.2033 139.371 71.086C136.488 73.906 132.728 75.316 128.091 75.316ZM204.389 67.232C205.705 67.232 207.115 66.8247 208.619 66.01C210.123 65.1953 211.533 63.942 212.849 62.25C214.416 60.1193 215.544 57.6753 216.233 54.918C216.985 52.1607 217.455 49.372 217.643 46.552V29.632C218.207 29.444 218.865 29.2873 219.617 29.162C220.369 29.0367 221.153 28.974 221.967 28.974C223.409 28.974 224.819 29.1933 226.197 29.632V56.704C226.197 60.0253 226.699 62.626 227.701 64.506C228.767 66.3233 230.521 67.232 232.965 67.232C234.031 67.232 234.751 67.6707 235.127 68.548C235.503 69.4253 235.691 70.3653 235.691 71.368C235.691 72.3707 235.409 73.2793 234.845 74.094C234.344 74.9087 233.498 75.316 232.307 75.316C225.79 75.316 221.56 72.2453 219.617 66.104C218.74 67.5453 217.8 68.7673 216.797 69.77C215.105 71.462 213.131 72.8093 210.875 73.812C208.682 74.8147 206.301 75.316 203.731 75.316C202.854 75.316 202.196 74.8773 201.757 74C201.256 73.1853 201.005 72.2767 201.005 71.274C201.005 70.2087 201.287 69.2687 201.851 68.454C202.353 67.6393 203.199 67.232 204.389 67.232ZM222.155 13.746C220.401 13.746 218.897 13.1193 217.643 11.866C216.39 10.6127 215.763 9.10866 215.763 7.354C215.763 5.53666 216.359 4.03266 217.549 2.842C218.803 1.58867 220.338 0.961999 222.155 0.961999C223.973 0.961999 225.477 1.58867 226.667 2.842C227.921 4.03266 228.547 5.53666 228.547 7.354C228.547 9.10866 227.921 10.6127 226.667 11.866C225.477 13.1193 223.973 13.746 222.155 13.746ZM232.28 75.316C231.466 75.316 230.808 74.94 230.306 74.188C229.805 73.436 229.554 72.4647 229.554 71.274C229.554 68.5793 230.682 67.232 232.938 67.232C234.756 67.232 236.604 66.95 238.484 66.386C240.364 65.7593 242.558 64.7253 245.064 63.284C242.62 59.0227 241.398 54.0093 241.398 48.244C241.398 44.3587 242.119 40.9433 243.56 37.998C245.002 34.99 247.007 32.64 249.576 30.948C252.146 29.1933 255.06 28.316 258.318 28.316C261.076 28.316 263.52 28.974 265.65 30.29C267.781 31.5433 269.442 33.298 270.632 35.554C271.823 37.81 272.418 40.4107 272.418 43.356C272.418 47.3667 271.228 51.0327 268.846 54.354C266.528 57.6753 262.58 61.2787 257.002 65.164C259.008 66.6053 261.702 67.326 265.086 67.326C266.904 67.326 268.721 67.0753 270.538 66.574C272.356 66.0727 274.11 65.3833 275.802 64.506C276.742 65.1953 277.432 66.2293 277.87 67.608C278.372 68.924 278.622 70.2087 278.622 71.462C276.554 72.6527 274.361 73.5927 272.042 74.282C269.724 74.9713 267.28 75.316 264.71 75.316H264.616C261.608 75.316 258.788 74.8147 256.156 73.812C253.524 72.8093 251.331 71.4307 249.576 69.676C243.56 73.436 237.795 75.316 232.28 75.316ZM249.576 47.492C249.576 52.4427 250.454 56.3907 252.208 59.336C256.282 56.516 259.29 53.7587 261.232 51.064C263.238 48.3693 264.24 45.8 264.24 43.356C264.24 41.1 263.676 39.3453 262.548 38.092C261.483 36.776 259.979 36.118 258.036 36.118C255.592 36.118 253.556 37.2147 251.926 39.408C250.36 41.6013 249.576 44.296 249.576 47.492ZM335.384 75.222C329.306 75.1593 324.355 73.812 320.532 71.18C316.71 68.4853 314.172 64.9133 312.918 60.464C313.608 59.2733 314.704 58.3333 316.208 57.644C317.775 56.892 319.248 56.5787 320.626 56.704C321.754 60.088 323.634 62.6573 326.266 64.412C328.898 66.1667 332.094 67.0127 335.854 66.95C339.865 66.8873 343.092 65.8533 345.536 63.848C347.98 61.78 349.202 58.9913 349.202 55.482C349.202 50.1553 346.414 46.7087 340.836 45.142L328.334 41.664C323.948 40.4107 320.501 38.28 317.994 35.272C315.488 32.2013 314.234 28.5667 314.234 24.368C314.234 20.608 315.174 17.2553 317.054 14.31C318.997 11.3647 321.629 9.07733 324.95 7.448C328.334 5.756 332.188 4.91 336.512 4.91C341.338 4.91 345.662 5.944 349.484 8.012C353.37 10.0173 356.096 12.6807 357.662 16.002C357.098 17.0047 356.158 18.0073 354.842 19.01C353.589 19.95 352.21 20.6707 350.706 21.172C347.636 15.8453 342.81 13.182 336.23 13.182C332.345 13.182 329.18 14.1847 326.736 16.19C324.292 18.1327 323.07 20.6707 323.07 23.804C323.07 28.8173 326.298 32.2327 332.752 34.05L343.844 37.058C348.294 38.2487 351.772 40.4733 354.278 43.732C356.785 46.928 358.038 50.8133 358.038 55.388C358.038 59.3987 357.036 62.908 355.03 65.916C353.088 68.924 350.393 71.2427 346.946 72.872C343.562 74.4387 339.708 75.222 335.384 75.222ZM361.985 67.42C363.551 66.9187 365.494 66.198 367.813 65.258C370.131 64.2553 372.325 63.2213 374.393 62.156C372.325 58.1453 371.291 53.508 371.291 48.244C371.291 44.3587 372.011 40.9433 373.453 37.998C374.894 34.99 376.899 32.64 379.469 30.948C382.038 29.1933 384.952 28.316 388.211 28.316C390.968 28.316 393.412 28.974 395.543 30.29C397.673 31.5433 399.334 33.298 400.525 35.554C401.715 37.81 402.311 40.4107 402.311 43.356C402.06 50.876 396.733 57.9887 386.331 64.694C388.399 66.4487 391.281 67.326 394.979 67.326C395.856 67.326 396.545 67.702 397.047 68.454C397.548 69.206 397.799 70.2087 397.799 71.462C397.799 72.6527 397.517 73.5927 396.953 74.282C396.389 74.9713 395.574 75.316 394.509 75.316C391.25 75.316 388.211 74.752 385.391 73.624C382.633 72.4333 380.409 70.804 378.717 68.736C376.398 69.9267 373.923 71.086 371.291 72.214C368.721 73.2793 366.528 74.094 364.711 74.658C363.708 73.7807 362.987 72.7467 362.549 71.556C362.047 70.3653 361.859 68.9867 361.985 67.42ZM379.469 47.492C379.469 51.9413 380.189 55.6387 381.631 58.584C385.955 55.7013 389.088 53.132 391.031 50.876C392.973 48.5573 394.007 46.0507 394.133 43.356C394.133 41.1 393.569 39.3453 392.441 38.092C391.375 36.776 389.871 36.118 387.929 36.118C385.485 36.118 383.448 37.2147 381.819 39.408C380.252 41.6013 379.469 44.296 379.469 47.492ZM394.545 75.316C393.73 75.316 393.072 74.94 392.571 74.188C392.007 73.436 391.725 72.4647 391.725 71.274C391.725 70.0207 392.038 69.0493 392.665 68.36C393.229 67.6707 394.012 67.326 395.015 67.326C398.461 67.326 401.501 66.3233 404.133 64.318C406.702 62.3127 409.428 58.9287 412.311 54.166L420.865 39.878C423.434 35.554 426.066 32.546 428.761 30.854C431.518 29.162 434.432 28.316 437.503 28.316H437.597C440.605 28.316 443.362 29.0993 445.869 30.666C448.375 32.17 450.475 34.238 452.167 36.87C453.859 34.238 455.989 32.17 458.559 30.666C461.128 29.0993 464.011 28.316 467.207 28.316C469.149 28.316 471.092 28.5667 473.035 29.068C474.977 29.5693 476.544 30.2273 477.735 31.042C477.735 32.2327 477.453 33.5487 476.889 34.99C476.387 36.3687 475.792 37.4027 475.103 38.092C473.599 37.528 472.251 37.1207 471.061 36.87C469.87 36.5567 468.742 36.4 467.677 36.4C464.355 36.4 461.661 37.716 459.593 40.348C457.525 42.98 456.491 46.3953 456.491 50.594C456.491 53.8527 457.055 56.7353 458.183 59.242C459.311 61.7487 460.846 63.7227 462.789 65.164C464.794 66.6053 467.081 67.326 469.651 67.326C470.465 67.326 471.123 67.702 471.625 68.454C472.126 69.206 472.377 70.2087 472.377 71.462C472.377 72.6527 472.063 73.5927 471.437 74.282C470.873 74.9713 470.058 75.316 468.993 75.316C465.045 75.316 461.598 74.5013 458.653 72.872C455.707 71.2427 453.389 68.8927 451.697 65.822C449.691 68.7047 447.216 71.0233 444.271 72.778C441.388 74.47 438.255 75.316 434.871 75.316C432.615 75.316 430.296 74.9087 427.915 74.094C425.533 73.342 423.716 72.3707 422.463 71.18C422.525 69.7387 422.901 68.36 423.591 67.044C424.28 65.728 425.157 64.7567 426.223 64.13C429.105 66.198 431.894 67.232 434.589 67.232C438.975 67.232 442.422 65.2893 444.929 61.404C446.934 58.4587 447.937 55.012 447.937 51.064C447.937 48.3693 447.435 45.9253 446.433 43.732C445.493 41.476 444.208 39.69 442.579 38.374C441.012 37.058 439.226 36.4 437.221 36.4C435.779 36.4 434.275 36.8387 432.709 37.716C431.205 38.5933 429.732 40.2853 428.291 42.792L418.703 58.866C416.384 62.814 414.034 66.01 411.653 68.454C409.271 70.8353 406.702 72.59 403.945 73.718C401.187 74.7833 398.054 75.316 394.545 75.316ZM469.364 75.316C468.486 75.316 467.766 74.94 467.202 74.188C466.638 73.436 466.356 72.4647 466.356 71.274C466.356 70.0207 466.669 69.0493 467.296 68.36C467.922 67.6707 468.737 67.326 469.74 67.326C474.69 67.326 479.046 66.0413 482.806 63.472C486.628 60.9027 489.636 57.362 491.83 52.85C494.023 48.338 495.12 43.168 495.12 37.34V28.316H488.164C487.725 27.3133 487.506 26.06 487.506 24.556C487.506 23.052 487.725 21.7987 488.164 20.796H495.12V4.158C496.31 3.71933 497.752 3.49999 499.444 3.49999C500.948 3.49999 502.389 3.71933 503.768 4.158V20.796H517.774C518.275 21.7987 518.526 23.052 518.526 24.556C518.526 26.06 518.275 27.3133 517.774 28.316H503.768V47.774C503.768 54.0407 504.708 58.866 506.588 62.25C508.53 65.5713 511.256 67.232 514.766 67.232C516.583 67.232 517.492 68.6107 517.492 71.368C517.492 72.5587 517.178 73.4987 516.552 74.188C515.988 74.94 515.173 75.316 514.108 75.316C509.784 75.316 506.18 74.0313 503.298 71.462C500.415 68.83 498.347 65.1953 497.094 60.558C494.148 65.1953 490.294 68.83 485.532 71.462C480.832 74.0313 475.442 75.316 469.364 75.316ZM514.755 67.232C516.823 67.232 518.828 66.2607 520.771 64.318C522.776 62.3127 524.468 59.6493 525.847 56.328C525.596 54.824 525.471 53.2887 525.471 51.722C525.471 47.21 526.442 43.1993 528.385 39.69C530.327 36.1807 532.959 33.4233 536.281 31.418C539.665 29.35 543.456 28.316 547.655 28.316C551.853 28.316 555.613 29.35 558.935 31.418C562.256 33.4233 564.857 36.1807 566.737 39.69C568.679 43.1993 569.651 47.21 569.651 51.722C569.651 56.234 568.679 60.276 566.737 63.848C564.857 67.42 562.256 70.24 558.935 72.308C555.676 74.3133 551.916 75.316 547.655 75.316C543.832 75.316 540.354 74.5013 537.221 72.872C534.15 71.18 531.612 68.8927 529.607 66.01C525.721 72.214 520.551 75.316 514.097 75.316C513.282 75.316 512.624 74.94 512.123 74.188C511.621 73.436 511.371 72.4647 511.371 71.274C511.371 68.5793 512.499 67.232 514.755 67.232ZM547.561 67.232C551.571 67.232 554.767 65.822 557.149 63.002C559.593 60.182 560.815 56.422 560.815 51.722C560.815 49.4033 560.47 47.2727 559.781 45.33C556.021 45.2047 552.605 44.4527 549.535 43.074C546.527 41.6953 544.145 39.8153 542.391 37.434C539.884 38.4993 537.91 40.3167 536.469 42.886C535.027 45.3927 534.307 48.4007 534.307 51.91C534.307 56.4847 535.497 60.182 537.879 63.002C540.323 65.822 543.55 67.232 547.561 67.232ZM591.257 74.658C589.753 74.658 588.343 74.4387 587.027 74V44.014C587.027 38.938 585.586 36.4 582.703 36.4C579.758 36.4 575.058 38.6873 568.603 43.262C568.039 43.638 567.444 43.826 566.817 43.826C565.94 43.826 565.063 43.3247 564.185 42.322C563.308 41.3193 562.869 40.254 562.869 39.126C562.869 38.0607 563.402 37.1833 564.467 36.494C568.917 33.5487 572.52 31.4493 575.277 30.196C578.035 28.9427 580.761 28.316 583.455 28.316C586.275 28.316 588.657 29.162 590.599 30.854C592.542 32.4833 593.889 34.708 594.641 37.528C596.396 34.5827 598.652 32.3267 601.409 30.76C604.167 29.1307 607.237 28.316 610.621 28.316C615.509 28.316 619.269 29.914 621.901 33.11C624.596 36.306 625.943 40.7867 625.943 46.552V57.55C625.943 61.1847 626.413 63.7227 627.353 65.164C628.356 66.5427 629.797 67.232 631.677 67.232C632.367 67.232 633.119 67.0753 633.933 66.762C634.748 66.4487 635.594 65.9787 636.471 65.352C637.537 65.8533 638.414 66.7307 639.103 67.984C639.793 69.1747 640.106 70.3653 640.043 71.556C639.041 72.684 637.756 73.5927 636.189 74.282C634.623 74.9713 632.931 75.316 631.113 75.316H631.019C627.197 75.316 623.969 74.0313 621.337 71.462C618.705 68.83 617.389 64.5373 617.389 58.584V46.552C617.389 39.784 614.726 36.4 609.399 36.4C606.642 36.4 604.198 37.4967 602.067 39.69C599.999 41.8833 598.37 44.9227 597.179 48.808C596.051 52.6933 595.487 57.2053 595.487 62.344V74C594.861 74.188 594.171 74.3447 593.419 74.47C592.667 74.5953 591.947 74.658 591.257 74.658Z" fill="url(#paint0_linear_2_166)"/>
<defs>
<linearGradient id="paint0_linear_2_166" x1="671" y1="-37.9999" x2="148" y2="105" gradientUnits="userSpaceOnUse">
<stop stop-color="#C8FF2C"/>
<stop offset="0.191705" stop-color="#0D9488"/>
<stop offset="0.410095" stop-color="#0D9488"/>
<stop offset="1" stop-color="#B44171"/>
</linearGradient>
</defs>
</svg>
